<svg width="74" height="30" viewBox="0 0 74 30" fill="none" xmlns="http://www.w3.org/2000/svg">
<rect width="74" height="30" rx="15" fill="#36D8D8" fill-opacity="0.25"/>
<path d="M28.1074 13.9623V16.0173H29.3524V13.9623H28.1074ZM28.6924 8.95229C26.7424 8.95229 25.3624 10.0323 25.3624 11.6373C25.3624 13.2423 26.7424 14.3073 28.6924 14.3073C30.6574 14.3073 32.0374 13.2423 32.0374 11.6373C32.0374 10.0323 30.6574 8.95229 28.6924 8.95229ZM28.6924 9.91229C29.9824 9.91229 30.8674 10.6173 30.8674 11.6373C30.8674 12.6723 29.9824 13.3623 28.6924 13.3623C27.4174 13.3623 26.5324 12.6723 26.5324 11.6373C26.5324 10.6173 27.4174 9.91229 28.6924 9.91229ZM33.8674 8.35229V18.7173H35.1124V8.35229H33.8674ZM34.5874 12.9273V13.9623H37.0924V12.9273H34.5874ZM26.5324 20.5623V21.5973H35.5924V20.5623H26.5324ZM26.5324 17.8323V21.0123H27.7774V17.8323H26.5324ZM24.7474 16.7073C27.0724 16.7073 30.2824 16.6773 33.1174 16.1523L33.0274 15.2373C30.2674 15.6573 26.9674 15.6873 24.5824 15.6873L24.7474 16.7073ZM41.8313 16.2873V19.6173H43.0613V16.2873H41.8313ZM46.1663 16.2573V19.6023H47.3813V16.2573H46.1663ZM38.4113 19.1973V20.2323H50.6963V19.1973H38.4113ZM39.8963 9.34229V10.3473H47.9513V12.4473H39.9413V16.1673H41.1713V13.4373H49.1813V9.34229H39.8963ZM39.9413 15.6123V16.6323H49.4963V15.6123H39.9413Z" fill="#068A8A"/>
</svg>
