<svg width="74" height="30" viewBox="0 0 74 30" fill="none" xmlns="http://www.w3.org/2000/svg">
<rect width="74" height="30" rx="15" fill="#CC271B" fill-opacity="0.25"/>
<path d="M21.313 9.82229V11.2023C21.313 13.1373 19.933 14.8923 17.893 15.6123L18.538 16.6023C20.818 15.7773 22.348 13.6923 22.348 11.2023V9.82229H21.313ZM21.553 9.82229V11.2023C21.553 13.5873 23.113 15.5673 25.363 16.3323L26.008 15.3573C23.998 14.6823 22.588 13.0323 22.588 11.2023V9.82229H21.553ZM18.223 9.46229V10.4673H25.648V9.46229H18.223ZM27.568 8.35229V18.2673H28.828V8.35229H27.568ZM20.113 20.5773V21.5973H29.233V20.5773H20.113ZM20.113 17.3373V21.0273H21.343V17.3373H20.113ZM41.7419 8.33729V16.9173H42.9269V8.33729H41.7419ZM39.5369 12.0123V13.0473H42.1019V12.0123H39.5369ZM38.8469 8.60729V16.4373H40.0169V8.60729H38.8469ZM31.4369 9.95729V10.9473H38.3069V9.95729H31.4369ZM34.8869 11.6373C33.1769 11.6373 31.9919 12.5673 31.9919 13.9623C31.9919 15.3723 33.1769 16.2873 34.8869 16.2873C36.5819 16.2873 37.7669 15.3723 37.7669 13.9623C37.7669 12.5673 36.5819 11.6373 34.8869 11.6373ZM34.8869 12.5673C35.9369 12.5673 36.6569 13.1223 36.6569 13.9623C36.6569 14.8173 35.9369 15.3573 34.8869 15.3573C33.8219 15.3573 33.1019 14.8173 33.1019 13.9623C33.1019 13.1223 33.8219 12.5673 34.8869 12.5673ZM34.2719 8.44229V10.5123H35.4869V8.44229H34.2719ZM38.4869 17.1573C35.6369 17.1573 33.9569 17.9973 33.9569 19.5123C33.9569 21.0123 35.6369 21.8673 38.4869 21.8673C41.3069 21.8673 43.0019 21.0123 43.0019 19.5123C43.0019 17.9973 41.3069 17.1573 38.4869 17.1573ZM38.4869 18.1173C40.5419 18.1173 41.7719 18.6123 41.7719 19.5123C41.7719 20.4123 40.5419 20.9223 38.4869 20.9223C36.4019 20.9223 35.1869 20.4123 35.1869 19.5123C35.1869 18.6123 36.4019 18.1173 38.4869 18.1173ZM50.8007 15.1173V17.4873H52.0457V15.1173H50.8007ZM45.2957 14.6823V15.6873H57.5507V14.6823H45.2957ZM51.4157 17.1123C48.5057 17.1123 46.7657 17.9673 46.7657 19.4973C46.7657 21.0123 48.5057 21.8673 51.4157 21.8673C54.3257 21.8673 56.0657 21.0123 56.0657 19.4973C56.0657 17.9673 54.3257 17.1123 51.4157 17.1123ZM51.4157 18.0723C53.5457 18.0723 54.8057 18.5823 54.8057 19.4973C54.8057 20.3973 53.5457 20.9073 51.4157 20.9073C49.3007 20.9073 48.0257 20.3973 48.0257 19.4973C48.0257 18.5823 49.3007 18.0723 51.4157 18.0723ZM50.6207 9.44729V9.85229C50.6207 11.3973 48.4157 12.6123 45.9857 12.8673L46.4357 13.8573C49.2407 13.5123 51.7307 12.0423 51.7307 9.85229V9.44729H50.6207ZM51.1457 9.44729V9.85229C51.1457 12.0423 53.6207 13.5123 56.4257 13.8573L56.8757 12.8673C54.4457 12.6123 52.2407 11.3973 52.2407 9.85229V9.44729H51.1457ZM46.4207 8.95229V9.95729H56.4557V8.95229H46.4207Z" fill="#CC271B"/>
</svg>
